<svg xmlns="http://www.w3.org/2000/svg" xmlns:xlink="http://www.w3.org/1999/xlink" viewBox="0 0 414.97 140.54"><defs><style>.cls-1{fill:#78cdd7;}.cls-2{fill:#dec512;}.cls-3,.cls-4,.cls-5,.cls-6,.cls-7{fill:none;}.cls-3{stroke:#dec512;}.cls-3,.cls-4,.cls-5,.cls-7{stroke-linecap:round;}.cls-3,.cls-4,.cls-5{stroke-linejoin:round;}.cls-3,.cls-4{stroke-width:20px;}.cls-4{stroke:#78cdd7;}.cls-5,.cls-6,.cls-7{stroke:#fff;stroke-width:10px;}.cls-6,.cls-7{stroke-miterlimit:10;}.cls-8{fill:#44a1a0;}.cls-9{fill:url(#linear-gradient);}.cls-10{fill:url(#linear-gradient-2);}</style><linearGradient id="linear-gradient" x1="654.78" y1="521" x2="712.85" y2="521" gradientUnits="userSpaceOnUse"><stop offset="0" stop-color="#0d5c63"/><stop offset="0.99" stop-color="#78cdd7"/></linearGradient><linearGradient id="linear-gradient-2" x1="655.01" y1="491.35" x2="714.57" y2="491.35" xlink:href="#linear-gradient"/></defs><g id="Layer_4" data-name="Layer 4"><path class="cls-1" d="M0,0H61.71a0,0,0,0,1,0,0V0A21.54,21.54,0,0,1,40.18,21.54H0a0,0,0,0,1,0,0V0A0,0,0,0,1,0,0Z"/><path class="cls-1" d="M0,50.73H52a9.7,9.7,0,0,1,9.7,9.7v0a9.7,9.7,0,0,1-9.7,9.7H0a0,0,0,0,1,0,0V50.73A0,0,0,0,1,0,50.73Z"/><path class="cls-2" d="M.29,80.54h20a0,0,0,0,1,0,0v44.36A15.64,15.64,0,0,1,4.64,140.54H.93a.64.64,0,0,1-.64-.64V80.54a0,0,0,0,1,0,0Z"/><path class="cls-1" d="M75.5,80.54h20a0,0,0,0,1,0,0v50a10,10,0,0,1-10,10h0a10,10,0,0,1-10-10v-50A0,0,0,0,1,75.5,80.54Z"/><path class="cls-3" d="M401.79,408.57h27.33A17.44,17.44,0,0,1,446.57,426v13.81a18.75,18.75,0,0,1-18.75,18.75h-26" transform="translate(-316.29 -398.03)"/><line class="cls-4" x1="120.29" y1="90.54" x2="140.57" y2="128.68"/><g id="Layer_5" data-name="Layer 5"><polyline class="cls-5" points="183.21 80.54 183.21 130.54 220.29 130.54 220.29 80.54"/><polyline class="cls-5" points="257.29 80.54 257.29 130.54 217.29 130.54"/><path class="cls-6" d="M593.23,493.49c0-22.55,40.84-22.55,40.84,0" transform="translate(-316.29 -398.03)"/><line class="cls-6" x1="270.9" y1="101.08" x2="323.1" y2="101.1"/><path class="cls-7" d="M593.22,503.72c0,34.07,37.95,30,40.85,12.4" transform="translate(-316.29 -398.03)"/><path class="cls-8" d="M348.45,34.54h0A6.53,6.53,0,0,1,355,41.06V72a5.93,5.93,0,0,1-5.93,5.93h-.64A5.93,5.93,0,0,1,342.48,72V40.5a6,6,0,0,1,6-6Z"/><path class="cls-9" d="M712.85,516.67c-4.12,9.83-15.18,16.86-28.17,16.86-16.39,0-29.71-11.19-29.9-25.06A73.89,73.89,0,0,0,686,517.91C697.36,518.64,706.17,518,712.85,516.67Z" transform="translate(-316.29 -398.03)"/><path class="cls-1" d="M703.11,481.11a64.54,64.54,0,0,0-14.4-2.64,107.07,107.07,0,0,0-19.61.66c-14.35,1.76-26.9,6.12-26.9,11.42,0,3.38,4.82,9.2,12.58,14.44v-.35A28.84,28.84,0,0,1,655,501c-4.39-3.64-7-7.27-7-9.58,0-3.71,7.1-6.89,16.39-8.78a94.39,94.39,0,0,1,24-1.71,56.41,56.41,0,0,1,19.49,4.92c10.79,4.9,17.48,12.06,17.48,15.28,0,2.41-3.15,7-11.55,9.94a28.47,28.47,0,0,1-1,3.56c13.53-3.19,18.4-9.73,18.4-12.93C731.25,497.27,720.16,486.28,703.11,481.11Z" transform="translate(-316.29 -398.03)"/><path class="cls-10" d="M714.57,500.58a24.09,24.09,0,0,1-.7,5.79c-6.16,2-15.14,3.18-27.78,2.31A61,61,0,0,1,655,497.34a25.86,25.86,0,0,1,9.42-16.49,29.26,29.26,0,0,1,4.67-3.17,32.71,32.71,0,0,1,34,1.78,28.18,28.18,0,0,1,4.83,4.27A25.06,25.06,0,0,1,714.57,500.58Z" transform="translate(-316.29 -398.03)"/></g></g></svg>